<?xml version="1.0" encoding="UTF-8" standalone="no"?>
<!-- Generator: Adobe Illustrator 16.0.3, SVG Export Plug-In . SVG Version: 6.00 Build 0)  -->

<svg
   version="1.1"
   id="Layer_1"
   x="0px"
   y="0px"
   width="256"
   height="256"
   viewBox="0 0 256 256"
   enable-background="new 0 0 90 90"
   xml:space="preserve"
   sodipodi:docname="gamepres-256.svg"
   inkscape:version="1.1.2 (b8e25be833, 2022-02-05)"
   xmlns:inkscape="http://www.inkscape.org/namespaces/inkscape"
   xmlns:sodipodi="http://sodipodi.sourceforge.net/DTD/sodipodi-0.dtd"
   xmlns="http://www.w3.org/2000/svg"
   xmlns:svg="http://www.w3.org/2000/svg"><defs
   id="defs55" /><sodipodi:namedview
   id="namedview53"
   pagecolor="#ffffff"
   bordercolor="#666666"
   borderopacity="1.0"
   inkscape:pageshadow="2"
   inkscape:pageopacity="0.0"
   inkscape:pagecheckerboard="0"
   showgrid="false"
   inkscape:zoom="1"
   inkscape:cx="12"
   inkscape:cy="33"
   inkscape:window-width="3840"
   inkscape:window-height="2097"
   inkscape:window-x="-8"
   inkscape:window-y="-8"
   inkscape:window-maximized="1"
   inkscape:current-layer="Layer_1" />
<g
   id="g50"
   transform="matrix(2.9245445,0,0,2.9245445,-2.8046396,-3.5898798)"
   style="stroke-width:0.341934">
	<path
   d="m 33.841,55.182 c -0.175,-0.705 -0.85,-0.961 -1.405,-0.961 -0.854,0 -1.518,0.668 -1.518,1.587 0,0.925 0.664,1.605 1.518,1.605 0.538,0 1.112,-0.25 1.376,-0.888 h -1.619 v -0.631 h 2.356 c -0.031,0.369 -0.064,0.612 -0.121,0.757 v -0.006 c -0.299,0.837 -1.199,1.374 -1.992,1.374 -1.225,0 -2.149,-0.924 -2.149,-2.212 0,-1.294 0.945,-2.22 2.149,-2.22 0.838,0 1.85,0.432 2.082,1.594 h -0.677 z"
   id="path2"
   style="stroke-width:0.341934" />
	<path
   d="M 37.726,56.701 H 36.16 c -0.17,0.399 -0.389,0.925 -0.528,1.287 h -0.678 l 1.754,-4.43 h 0.462 l 1.756,4.43 h -0.675 z m -1.33,-0.594 h 1.089 l -0.539,-1.543 z"
   id="path4"
   style="stroke-width:0.341934" />
	<polygon
   points="40.149,53.615 41.592,55.739 43.035,53.615 43.534,53.615 43.534,57.988 42.911,57.988 42.911,54.908 41.766,56.607 41.411,56.607 40.267,54.908 40.267,57.988 39.638,57.988 39.638,53.615 "
   id="polygon6"
   style="stroke-width:0.341934" />
	<polygon
   points="45.271,54.252 45.271,55.482 47.25,55.482 47.25,56.12 45.271,56.12 45.271,57.357 47.3,57.357 47.3,57.988 44.634,57.988 44.634,53.621 47.293,53.621 47.293,54.252 "
   id="polygon8"
   style="stroke-width:0.341934" />
	<path
   d="m 2.559,62.201 c 0.942,0 1.418,0.73 1.418,1.463 0,0.729 -0.476,1.454 -1.418,1.454 H 1.598 v 1.456 H 0.959 v -4.373 z m 0,2.293 c 0.529,0 0.792,-0.412 0.792,-0.824 0,-0.419 -0.263,-0.831 -0.792,-0.831 H 1.598 v 1.655 z"
   id="path10"
   style="stroke-width:0.341934" />
	<path
   d="m 5.75,64.357 h 0.736 c 0.531,0 0.794,-0.383 0.794,-0.764 0,-0.373 -0.263,-0.755 -0.794,-0.755 H 5.518 v 3.735 H 4.893 V 62.2 h 1.594 c 0.95,0 1.425,0.699 1.425,1.393 0,0.619 -0.382,1.207 -1.131,1.338 l 1.381,1.643 H 7.342 L 5.75,64.656 Z"
   id="path12"
   style="stroke-width:0.341934" />
	<polygon
   points="9.44,62.839 9.44,64.069 11.42,64.069 11.42,64.707 9.44,64.707 9.44,65.943 11.47,65.943 11.47,66.574 8.802,66.574 8.802,62.207 11.463,62.207 11.463,62.839 "
   id="polygon14"
   style="stroke-width:0.341934" />
	<path
   d="m 14.76,63.332 c -0.085,-0.393 -0.512,-0.563 -0.894,-0.555 -0.293,0.005 -0.617,0.105 -0.791,0.329 -0.091,0.114 -0.12,0.257 -0.108,0.407 0.031,0.449 0.524,0.505 0.993,0.549 0.6,0.075 1.345,0.232 1.513,0.932 0.019,0.094 0.031,0.2 0.031,0.287 0,0.843 -0.837,1.33 -1.626,1.33 -0.676,0 -1.492,-0.4 -1.572,-1.181 l -0.007,-0.118 0.636,-0.013 0.006,0.095 v -0.025 c 0.044,0.406 0.54,0.617 0.944,0.617 0.471,0 0.982,-0.262 0.982,-0.711 0,-0.043 -0.009,-0.096 -0.019,-0.15 -0.075,-0.331 -0.526,-0.388 -0.964,-0.43 -0.683,-0.07 -1.48,-0.22 -1.548,-1.131 v 0.004 c -0.024,-0.293 0.049,-0.586 0.237,-0.83 0.294,-0.381 0.817,-0.582 1.324,-0.582 0.676,0 1.375,0.352 1.486,1.151 z"
   id="path16"
   style="stroke-width:0.341934" />
	<polygon
   points="17.069,62.839 17.069,64.069 19.053,64.069 19.053,64.707 17.069,64.707 17.069,65.943 19.101,65.943 19.101,66.574 16.431,66.574 16.431,62.207 19.095,62.207 19.095,62.839 "
   id="polygon18"
   style="stroke-width:0.341934" />
	<path
   d="m 20.867,64.357 h 0.738 c 0.53,0 0.793,-0.383 0.793,-0.764 0,-0.373 -0.263,-0.755 -0.793,-0.755 h -0.97 v 3.735 H 20.01 V 62.2 h 1.595 c 0.947,0 1.425,0.699 1.425,1.393 0,0.619 -0.383,1.207 -1.132,1.338 l 1.38,1.643 H 22.46 l -1.593,-1.918 z"
   id="path20"
   style="stroke-width:0.341934" />
	<polygon
   points="25.575,65.475 26.887,62.207 27.563,62.207 25.807,66.587 25.345,66.587 23.59,62.207 24.276,62.207 "
   id="polygon22"
   style="stroke-width:0.341934" />
	<path
   d="m 30.269,65.287 h -1.565 c -0.17,0.399 -0.388,0.924 -0.527,1.287 h -0.679 l 1.754,-4.429 h 0.462 l 1.756,4.429 H 30.796 Z M 28.94,64.695 h 1.086 L 29.489,63.15 Z"
   id="path24"
   style="stroke-width:0.341934" />
	<polygon
   points="33.361,66.594 32.729,66.594 32.729,62.788 31.405,62.788 31.405,62.201 34.678,62.201 34.678,62.788 33.361,62.788 "
   id="polygon26"
   style="stroke-width:0.341934" />
	<polygon
   points="36.202,65.943 36.202,62.833 35.389,62.833 35.389,62.207 37.646,62.207 37.646,62.833 36.834,62.833 36.834,65.943 37.646,65.943 37.646,66.574 35.389,66.574 35.389,65.943 "
   id="polygon28"
   style="stroke-width:0.341934" />
	<path
   d="m 39.088,62.808 c 0.399,-0.405 0.961,-0.662 1.572,-0.662 0.621,0 1.177,0.257 1.581,0.662 0.396,0.405 0.651,0.963 0.651,1.579 0,0.619 -0.256,1.176 -0.651,1.582 -0.404,0.411 -0.96,0.662 -1.581,0.662 -0.611,0 -1.173,-0.251 -1.572,-0.662 -0.394,-0.406 -0.649,-0.963 -0.649,-1.582 -10e-4,-0.616 0.255,-1.174 0.649,-1.579 m 2.705,0.448 c -0.294,-0.292 -0.7,-0.474 -1.133,-0.474 -0.428,0 -0.83,0.182 -1.116,0.474 -0.288,0.289 -0.471,0.688 -0.471,1.131 0,0.443 0.183,0.846 0.471,1.131 0.286,0.294 0.688,0.477 1.116,0.477 0.433,0 0.839,-0.183 1.133,-0.477 0.28,-0.285 0.463,-0.682 0.463,-1.131 0,-0.449 -0.183,-0.842 -0.463,-1.131"
   id="path30"
   style="stroke-width:0.341934" />
	<polygon
   points="47.15,62.201 47.15,66.574 46.65,66.574 44.54,63.52 44.54,66.574 43.907,66.574 43.907,62.195 44.395,62.201 46.526,65.281 46.526,62.201 "
   id="polygon32"
   style="stroke-width:0.341934" />
	<path
   d="m 21.725,71.918 c -0.088,-0.392 -0.512,-0.561 -0.894,-0.557 -0.294,0.008 -0.617,0.107 -0.793,0.332 -0.086,0.112 -0.12,0.256 -0.105,0.406 0.027,0.45 0.521,0.506 0.993,0.55 0.599,0.075 1.342,0.231 1.512,0.932 0.019,0.094 0.03,0.2 0.03,0.286 0,0.844 -0.837,1.33 -1.625,1.33 -0.674,0 -1.492,-0.399 -1.574,-1.18 l -0.007,-0.119 0.638,-0.012 0.006,0.094 v -0.024 c 0.047,0.406 0.54,0.618 0.943,0.618 0.469,0 0.981,-0.264 0.981,-0.713 0,-0.045 -0.007,-0.094 -0.018,-0.148 -0.076,-0.332 -0.525,-0.389 -0.964,-0.433 -0.68,-0.068 -1.479,-0.218 -1.548,-1.132 v 0.009 c -0.025,-0.295 0.05,-0.589 0.238,-0.831 0.294,-0.383 0.817,-0.582 1.323,-0.582 0.674,0 1.374,0.35 1.489,1.149 z"
   id="path34"
   style="stroke-width:0.341934" />
	<path
   d="m 23.958,71.395 c 0.401,-0.406 0.963,-0.662 1.578,-0.662 0.616,0 1.172,0.256 1.578,0.662 0.392,0.405 0.648,0.963 0.648,1.579 0,0.62 -0.257,1.176 -0.648,1.581 -0.406,0.413 -0.962,0.662 -1.578,0.662 -0.615,0 -1.177,-0.249 -1.578,-0.662 -0.392,-0.405 -0.648,-0.961 -0.648,-1.581 0,-0.617 0.256,-1.174 0.648,-1.579 m 2.707,0.449 c -0.294,-0.293 -0.702,-0.475 -1.129,-0.475 -0.436,0 -0.833,0.182 -1.119,0.475 -0.291,0.287 -0.472,0.688 -0.472,1.13 0,0.446 0.181,0.843 0.472,1.132 0.286,0.293 0.684,0.475 1.119,0.475 0.427,0 0.835,-0.182 1.129,-0.475 0.278,-0.289 0.462,-0.683 0.462,-1.132 0,-0.449 -0.184,-0.843 -0.462,-1.13"
   id="path36"
   style="stroke-width:0.341934" />
	<path
   d="m 29.057,71.42 c 0.383,-0.395 0.92,-0.651 1.515,-0.651 0.999,0 1.785,0.626 2.035,1.612 h -0.625 c -0.231,-0.654 -0.768,-0.986 -1.41,-0.986 -0.419,0 -0.802,0.18 -1.075,0.468 -0.275,0.286 -0.451,0.675 -0.451,1.126 0,0.438 0.176,0.824 0.451,1.11 0.273,0.288 0.656,0.468 1.075,0.468 0.66,0 1.224,-0.381 1.449,-1.043 h 0.617 c -0.251,0.995 -1.051,1.668 -2.066,1.668 -0.595,0 -1.132,-0.25 -1.515,-0.648 -0.373,-0.4 -0.625,-0.949 -0.625,-1.555 0,-0.62 0.252,-1.172 0.625,-1.569"
   id="path38"
   style="stroke-width:0.341934" />
	<polygon
   points="34.186,74.531 34.186,71.42 33.375,71.42 33.375,70.793 35.628,70.793 35.628,71.42 34.816,71.42 34.816,74.531 35.628,74.531 35.628,75.16 33.375,75.16 33.375,74.531 "
   id="polygon40"
   style="stroke-width:0.341934" />
	<polygon
   points="37.146,71.426 37.146,72.656 39.126,72.656 39.126,73.293 37.146,73.293 37.146,74.529 39.177,74.529 39.177,75.16 36.509,75.16 36.509,70.793 39.169,70.793 39.169,71.426 "
   id="polygon42"
   style="stroke-width:0.341934" />
	<polygon
   points="41.81,75.18 41.179,75.18 41.179,71.375 39.854,71.375 39.854,70.788 43.129,70.788 43.129,71.375 41.81,71.375 "
   id="polygon44"
   style="stroke-width:0.341934" />
	<polygon
   points="45.564,72.711 46.757,70.793 47.507,70.793 45.882,73.381 45.882,75.16 45.243,75.16 45.243,73.381 43.627,70.793 44.37,70.793 "
   id="polygon46"
   style="stroke-width:0.341934" />
	<path
   fill="#be1e2d"
   d="M 80.818,78.496 H 54.15 V 46.492 H 40.879 V 11.494 h 22.768 v 3.904 H 44.781 v 27.19 H 54.15 V 25.415 H 76.005 V 46.492 H 58.051 V 74.593 H 76.918 V 67.697 H 66.51 v -14.18 h 21.984 v 3.902 H 70.412 v 6.375 H 80.818 Z M 58.051,42.588 H 72.104 V 29.318 H 58.051 Z"
   id="path48"
   style="stroke-width:0.149655" />
</g>
</svg>
